<?xml version="1.0" standalone="no"?><svg xmlns="http://www.w3.org/2000/svg" viewBox="0 0 1440 320"><path fill="#105ba7" fill-opacity="1" d="M0,256L12,266.7C24,277,48,299,72,293.3C96,288,120,256,144,240C168,224,192,224,216,234.7C240,245,264,267,288,266.7C312,267,336,245,360,208C384,171,408,117,432,112C456,107,480,149,504,192C528,235,552,277,576,282.7C600,288,624,256,648,245.3C672,235,696,245,720,245.3C744,245,768,235,792,218.7C816,203,840,181,864,165.3C888,149,912,139,936,165.3C960,192,984,256,1008,266.7C1032,277,1056,235,1080,224C1104,213,1128,235,1152,224C1176,213,1200,171,1224,170.7C1248,171,1272,213,1296,213.3C1320,213,1344,171,1368,176C1392,181,1416,235,1428,261.3L1440,288L1440,320L1428,320C1416,320,1392,320,1368,320C1344,320,1320,320,1296,320C1272,320,1248,320,1224,320C1200,320,1176,320,1152,320C1128,320,1104,320,1080,320C1056,320,1032,320,1008,320C984,320,960,320,936,320C912,320,888,320,864,320C840,320,816,320,792,320C768,320,744,320,720,320C696,320,672,320,648,320C624,320,600,320,576,320C552,320,528,320,504,320C480,320,456,320,432,320C408,320,384,320,360,320C336,320,312,320,288,320C264,320,240,320,216,320C192,320,168,320,144,320C120,320,96,320,72,320C48,320,24,320,12,320L0,320Z"></path></svg>